<?xml version="1.0" encoding="UTF-8" standalone="no"?>
<!DOCTYPE svg PUBLIC "-//W3C//DTD SVG 1.1//EN" "http://www.w3.org/Graphics/SVG/1.1/DTD/svg11.dtd">
<svg width="100%" height="100%" viewBox="0 0 248 72" version="1.1" xmlns="http://www.w3.org/2000/svg" xmlns:xlink="http://www.w3.org/1999/xlink" xml:space="preserve" xmlns:serif="http://www.serif.com/" style="fill-rule:evenodd;clip-rule:evenodd;stroke-linejoin:round;stroke-miterlimit:2;">
    <g>
        <rect x="0" y="0" width="248" height="71" style="fill:none;"/>
        <g transform="matrix(1,0,0,1,0.358,51.002)">
            <path d="M5.298,15.837C7.862,15.837 9.733,13.692 9.733,10.677C9.733,7.622 7.967,5.667 5.423,5.667C3.973,5.667 2.733,6.379 1.913,7.685L1.913,0L0,0L0,15.437L1.85,15.437L1.85,13.84C2.568,15.064 3.879,15.824 5.298,15.838L5.298,15.837ZM4.877,14.113C3.069,14.113 1.85,12.765 1.85,10.761C1.85,8.801 3.132,7.391 4.919,7.391C6.706,7.391 7.757,8.612 7.757,10.697C7.757,12.807 6.664,14.113 4.877,14.113ZM12.025,20.029L14.148,20.029L20.538,6.066L18.395,6.066L15.683,12.636L15.641,12.636L13.055,6.066L10.847,6.066L14.652,14.552L12.025,20.029ZM28.675,0.527L28.675,15.437L30.731,15.437L30.731,8.76L36.786,8.76L36.786,6.93L30.731,6.93L30.731,2.377L37.248,2.377L37.038,0.527L28.675,0.527ZM39.964,0.526L39.964,15.437L48.727,15.437L48.958,13.566L42.021,13.566L42.021,0.526L39.964,0.526ZM50.98,0.527L50.98,15.437L59.659,15.437L59.869,13.587L53.036,13.587L53.036,8.717L59.344,8.717L59.344,6.888L53.036,6.888L53.036,2.377L59.869,2.377L59.659,0.527L50.979,0.527L50.98,0.527ZM62.984,0.527L62.984,15.437L71.663,15.437L71.873,13.587L65.04,13.587L65.04,8.717L71.347,8.717L71.347,6.888L65.04,6.888L65.04,2.377L71.873,2.377L71.663,0.527L62.983,0.527L62.984,0.527ZM78.456,2.397L78.456,15.437L80.513,15.437L80.513,2.397L85.558,2.397L85.558,0.528L73.411,0.528L73.411,2.398L78.456,2.398L78.456,2.397ZM94.619,15.837C97.709,15.837 99.917,14.577 101.473,11.902L100.064,10.912L99.686,10.996C98.571,13.018 97.058,13.903 94.682,13.903C91.487,13.903 89.048,11.375 89.048,7.98C89.048,4.567 91.445,2.06 94.661,2.06C96.848,2.06 98.424,2.967 99.581,5.01L99.938,5.094L101.409,4.104C99.96,1.43 97.668,0.126 94.62,0.126C90.184,0.126 86.866,3.451 86.866,7.98C86.866,12.533 90.164,15.837 94.62,15.837L94.619,15.837ZM111.357,15.837C115.961,15.837 119.3,12.407 119.3,7.98C119.3,3.556 116.024,0.126 111.357,0.126C106.687,0.126 103.389,3.556 103.389,7.98C103.389,12.407 106.729,15.837 111.357,15.837ZM111.357,13.903C107.969,13.903 105.551,11.312 105.551,7.98C105.551,4.61 107.948,2.06 111.357,2.06C114.762,2.06 117.138,4.61 117.138,7.98C117.138,11.312 114.742,13.903 111.357,13.903ZM128.679,8.717C130.635,8.17 131.682,6.783 131.682,4.842C131.682,1.934 129.899,0.527 126.682,0.527L122.205,0.527L122.205,15.437L124.282,15.437L124.282,9.012L126.535,9.012L131.01,15.437L133.112,15.437L133.259,15.103L128.679,8.717ZM124.282,2.314L126.262,2.314C128.575,2.314 129.626,2.987 129.626,4.842C129.626,6.593 128.596,7.267 126.262,7.267L124.282,7.267L124.282,2.314Z"/>
        </g>
        <path d="M0,0L20.76,0C34.838,0 44.526,8.223 44.526,21.644C44.526,35.067 34.838,43.289 20.76,43.289L0,43.289L0,0ZM20.157,31.91C26.114,31.91 30.206,28.263 30.206,21.644C30.206,15.027 26.114,11.379 20.157,11.379L14.201,11.379L14.201,31.91L20.157,31.91ZM64.741,32.405L60.891,32.405L60.891,43.29L46.69,43.29L46.69,0L66.97,0C78.7,0 86.164,6.31 86.164,16.326C86.164,22.572 83.276,27.272 78.221,29.934L87.064,43.289L71.9,43.289L64.74,32.405L64.741,32.405ZM66.066,11.255L60.89,11.255L60.89,21.4L66.065,21.4C69.975,21.4 71.843,19.48 71.843,16.327C71.843,13.174 69.975,11.257 66.065,11.257L66.066,11.255ZM88.505,43.289L102.706,43.289L102.706,0L88.506,0L88.505,43.289ZM185.585,32.282L185.585,43.29L150.77,43.29L150.77,-0.001L185.43,-0.001L185.43,11.006L164.73,11.006L164.73,16.08L182.543,16.08L182.543,26.59L164.73,26.59L164.73,32.281L185.585,32.282ZM229.567,0L229.567,43.29L217.893,43.29L201.887,23.625L201.887,43.289L188.047,43.289L188.047,0L199.722,0L215.727,19.664L215.727,0L229.567,0Z"/>
        <path d="M119.798,43.268L127.258,25.145L117.268,0.001L101.981,0.001L119.795,43.289"/>
        <path d="M137.582,0.005L151.569,0.005L133.739,43.353L119.776,43.297L137.582,0.005Z" style="fill:rgb(255,17,25);"/>
        <g>
            <path d="M235.84,1.08L233.829,1.08L233.829,0L239.094,0L239.094,1.08L237.052,1.08L237.052,7.1L235.841,7.1L235.84,1.08ZM240.849,0L242.064,0L244.414,4.25L244.434,4.25L246.784,0L248,0L248,7.1L246.784,7.1L246.784,2.35L246.764,2.35L244.816,5.73L244.022,5.73L242.074,2.35L242.064,2.35L242.064,7.1L240.849,7.1L240.849,0Z"/>
        </g>
    </g>
</svg>
